<svg id="SvgjsSvg1017" xmlns="http://www.w3.org/2000/svg" version="1.1" xmlns:xlink="http://www.w3.org/1999/xlink" xmlns:svgjs="http://svgjs.com/svgjs" width="90" height="66.5" viewBox="0 0 90 66.5"><title>Stroke 1</title><desc>Created with Avocode.</desc><defs id="SvgjsDefs1018"></defs><path id="SvgjsPath1019" d="M625 475.54L628.54 472 " fill-opacity="0" fill="#ffffff" stroke-dashoffset="0" stroke-linejoin="round" stroke-linecap="round" stroke-opacity="1" stroke="#ff5d5d" stroke-miterlimit="50" stroke-width="2" transform="matrix(1,0,0,1,-540,-450)"></path><path id="SvgjsPath1020" d="M625 472L628.54 475.54 " fill-opacity="0" fill="#ffffff" stroke-dashoffset="0" stroke-linejoin="round" stroke-linecap="round" stroke-opacity="1" stroke="#ff5d5d" stroke-miterlimit="50" stroke-width="2" transform="matrix(1,0,0,1,-540,-450)"></path><path id="SvgjsPath1021" d="M549.5 456C550.88 456 552 454.88 552 453.5C552 452.12 550.88 451 549.5 451C548.12 451 547 452.12 547 453.5C547 454.88 548.12 456 549.5 456Z " fill-opacity="0" fill="#ffffff" stroke-dashoffset="0" stroke-linejoin="round" stroke-linecap="round" stroke-opacity="1" stroke="#00d40b" stroke-miterlimit="50" stroke-width="2" transform="matrix(1,0,0,1,-540,-450)"></path><path id="SvgjsPath1022" d="M541 507.83L543.83 505L546.6600000000001 507.83L543.83 510.65999999999997Z " fill-opacity="0" fill="#ffffff" stroke-dashoffset="0" stroke-linejoin="round" stroke-linecap="round" stroke-opacity="1" stroke="#ffc504" stroke-miterlimit="50" stroke-width="2" transform="matrix(1,0,0,1,-540,-450)"></path><path id="SvgjsPath1023" d="M561 491C561 477.74517 571.74517 467 585 467C598.25483 467 609 477.74517 609 491C609 504.25483 598.25483 515 585 515C571.74517 515 561 504.25483 561 491Z " fill-opacity="0" fill="#ffffff" stroke-dashoffset="0" stroke-linejoin="miter" stroke-linecap="butt" stroke-opacity="1" stroke="#d1d4d9" stroke-miterlimit="50" stroke-width="3" transform="matrix(1,0,0,1,-540,-450)"></path><path id="SvgjsPath1024" d="M576 503.73C576 498.93 579.93 495 584.73 495C589.53 495 593.45 498.93 593.45 503.73 " fill-opacity="0" fill="#ffffff" stroke-dashoffset="0" stroke-linejoin="miter" stroke-linecap="butt" stroke-opacity="1" stroke="#d1d4d9" stroke-miterlimit="50" stroke-width="3" transform="matrix(1,0,0,1,-540,-450)"></path><path id="SvgjsPath1025" d="M574 484C574 482.89543 574.89543 482 576 482C577.10457 482 578 482.89543 578 484C578 485.10457 577.10457 486 576 486C574.89543 486 574 485.10457 574 484Z " fill-opacity="0" fill="#ffffff" stroke-dashoffset="0" stroke-linejoin="miter" stroke-linecap="butt" stroke-opacity="1" stroke="#d1d4d9" stroke-miterlimit="50" stroke-width="3" transform="matrix(1,0,0,1,-540,-450)"></path><path id="SvgjsPath1026" d="M592 484C592 482.89543 592.89543 482 594 482C595.10457 482 596 482.89543 596 484C596 485.10457 595.10457 486 594 486C592.89543 486 592 485.10457 592 484Z " fill-opacity="0" fill="#ffffff" stroke-dashoffset="0" stroke-linejoin="miter" stroke-linecap="butt" stroke-opacity="1" stroke="#d1d4d9" stroke-miterlimit="50" stroke-width="3" transform="matrix(1,0,0,1,-540,-450)"></path></svg>