<svg id="SvgjsSvg1009" xmlns="http://www.w3.org/2000/svg" version="1.1" xmlns:xlink="http://www.w3.org/1999/xlink" xmlns:svgjs="http://svgjs.com/svgjs" width="14" height="4" viewBox="0 0 14 4"><title>Oval</title><desc>Created with Avocode.</desc><defs id="SvgjsDefs1010"></defs><path id="SvgjsPath1011" d="M436 217C436 215.89543 436.89543 215 438 215C439.10457 215 440 215.89543 440 217C440 218.10457 439.10457 219 438 219C436.89543 219 436 218.10457 436 217Z " fill="#a5aab3" fill-opacity="1" transform="matrix(1,0,0,1,-431,-215)"></path><path id="SvgjsPath1012" d="M431 217C431 215.89543 431.89543 215 433 215C434.10457 215 435 215.89543 435 217C435 218.10457 434.10457 219 433 219C431.89543 219 431 218.10457 431 217Z " fill="#a5aab3" fill-opacity="1" transform="matrix(1,0,0,1,-431,-215)"></path><path id="SvgjsPath1013" d="M441 217C441 215.89543 441.89543 215 443 215C444.10457 215 445 215.89543 445 217C445 218.10457 444.10457 219 443 219C441.89543 219 441 218.10457 441 217Z " fill="#a5aab3" fill-opacity="1" transform="matrix(1,0,0,1,-431,-215)"></path></svg>