<svg id="SvgjsSvg1000" xmlns="http://www.w3.org/2000/svg" version="1.1" xmlns:xlink="http://www.w3.org/1999/xlink" xmlns:svgjs="http://svgjs.com/svgjs" width="14" height="14" viewBox="0 0 14 14"><title>Shape</title><desc>Created with Avocode.</desc><defs id="SvgjsDefs1001"></defs><path id="SvgjsPath1007" d="M420.13 224H407.88C407.35 224 407 223.65 407 223.13V210.88C407 210.35 407.35 210 407.88 210H420.13C420.65 210 421 210.35 421 210.88V223.13C421 223.65 420.65 224 420.13 224ZM408.75 222.25H419.25V211.75H408.75Z " fill="#a5aab3" fill-opacity="1" transform="matrix(1,0,0,1,-407,-210)"></path><path id="SvgjsPath1008" d="M410.33 219.14C409.97999999999996 218.86999999999998 409.89 218.26 410.15 217.91L412.78 214.41C413.13 213.97 413.73999999999995 213.97 414.09 214.32L415.92999999999995 216.16L417.06999999999994 214.41C417.3299999999999 213.97 417.8499999999999 213.89 418.28999999999996 214.15C418.72999999999996 214.41 418.81999999999994 214.94 418.54999999999995 215.37L416.79999999999995 218C416.53999999999996 218.44 415.84 218.52 415.48999999999995 218.17L413.56999999999994 216.25L411.54999999999995 218.96C411.28999999999996 219.31 410.67999999999995 219.4 410.3299999999999 219.14000000000001Z " fill="#a5aab3" fill-opacity="1" transform="matrix(1,0,0,1,-407,-210)"></path></svg>