<?xml version="1.0" encoding="UTF-8"?>
<svg width="14px" height="14px" viewBox="0 0 14 14" version="1.1" xmlns="http://www.w3.org/2000/svg" xmlns:xlink="http://www.w3.org/1999/xlink">
    <!-- Generator: Sketch 41.2 (35397) - http://www.bohemiancoding.com/sketch -->
    <title>Group</title>
    <desc>Created with Sketch.</desc>
    <defs></defs>
    <g id="Page-1" stroke="none" stroke-width="1" fill="none" fill-rule="evenodd">
        <g id="Group" fill="#A5AAB3">
            <polygon id="Shape" points="13.7071068 12.2928932 10.5071068 9.09289322 9.09289322 10.5071068 12.2928932 13.7071068"></polygon>
            <path d="M6.14285714,12.2857143 C9.53546346,12.2857143 12.2857143,9.53546346 12.2857143,6.14285714 C12.2857143,2.75025082 9.53546346,0 6.14285714,0 C2.75025082,0 0,2.75025082 0,6.14285714 C0,9.53546346 2.75025082,12.2857143 6.14285714,12.2857143 Z M6.14285714,10.2857143 C3.85482032,10.2857143 2,8.43089396 2,6.14285714 C2,3.85482032 3.85482032,2 6.14285714,2 C8.43089396,2 10.2857143,3.85482032 10.2857143,6.14285714 C10.2857143,8.43089396 8.43089396,10.2857143 6.14285714,10.2857143 Z" id="Oval"></path>
        </g>
    </g>
</svg>